<?xml version="1.0" encoding="UTF-8" standalone="no"?>
<!DOCTYPE svg PUBLIC "-//W3C//DTD SVG 1.1//EN"
 "http://www.w3.org/Graphics/SVG/1.1/DTD/svg11.dtd">
<!-- Generated by graphviz version 2.43.0 (0)
 -->
<!-- Title: pastafarianism Pages: 1 -->
<svg width="993pt" height="260pt"
 viewBox="0.00 0.00 993.32 260.00" xmlns="http://www.w3.org/2000/svg" xmlns:xlink="http://www.w3.org/1999/xlink">
<g id="graph0" class="graph" transform="scale(1 1) rotate(0) translate(4 256)">
<title>pastafarianism</title>
<polygon fill="white" stroke="transparent" points="-4,4 -4,-256 989.32,-256 989.32,4 -4,4"/>
<!-- Pickup Behavior -->
<g id="node1" class="node">
<title>Pickup Behavior</title>
<polygon fill="orange" stroke="black" points="557.04,-252 453.04,-252 453.04,-216 557.04,-216 557.04,-252"/>
<text text-anchor="middle" x="505.04" y="-231.8" font-family="Times,serif" font-size="9.00">Ⓜ Pickup Behavior</text>
</g>
<!-- Inverter -->
<g id="node2" class="node">
<title>Inverter</title>
<ellipse fill="ghostwhite" stroke="black" cx="60.04" cy="-162" rx="31.51" ry="18"/>
<text text-anchor="middle" x="60.04" y="-159.8" font-family="Times,serif" font-size="9.00">Inverter</text>
</g>
<!-- Pickup Behavior&#45;&gt;Inverter -->
<g id="edge1" class="edge">
<title>Pickup Behavior&#45;&gt;Inverter</title>
<path fill="none" stroke="black" d="M452.86,-230.53C375.05,-225.87 224.55,-213.09 101.04,-180 98.57,-179.34 96.05,-178.56 93.53,-177.71"/>
<polygon fill="black" stroke="black" points="94.55,-174.35 83.96,-174.15 92.11,-180.92 94.55,-174.35"/>
</g>
<!-- Set next point -->
<g id="node4" class="node">
<title>Set next point</title>
<ellipse fill="gray" stroke="black" cx="157.04" cy="-162" rx="47.19" ry="18"/>
<text text-anchor="middle" x="157.04" y="-159.8" font-family="Times,serif" font-size="9.00">Set next point</text>
</g>
<!-- Pickup Behavior&#45;&gt;Set next point -->
<g id="edge3" class="edge">
<title>Pickup Behavior&#45;&gt;Set next point</title>
<path fill="none" stroke="black" d="M452.98,-225.4C394.28,-216.41 296.18,-200.09 213.04,-180 209.26,-179.09 205.36,-178.07 201.46,-176.99"/>
<polygon fill="black" stroke="black" points="202.4,-173.62 191.82,-174.24 200.48,-180.35 202.4,-173.62"/>
</g>
<!-- Move to next point -->
<g id="node5" class="node">
<title>Move to next point</title>
<ellipse fill="gray" stroke="black" cx="282.04" cy="-162" rx="60.09" ry="18"/>
<text text-anchor="middle" x="282.04" y="-159.8" font-family="Times,serif" font-size="9.00">Move to next point</text>
</g>
<!-- Pickup Behavior&#45;&gt;Move to next point -->
<g id="edge4" class="edge">
<title>Pickup Behavior&#45;&gt;Move to next point</title>
<path fill="none" stroke="black" d="M453.04,-216.68C416.46,-205.19 367.78,-189.91 331.72,-178.59"/>
<polygon fill="black" stroke="black" points="332.5,-175.17 321.91,-175.51 330.4,-181.85 332.5,-175.17"/>
</g>
<!-- Check object -->
<g id="node6" class="node">
<title>Check object</title>
<ellipse fill="gray" stroke="black" cx="405.04" cy="-162" rx="44.41" ry="18"/>
<text text-anchor="middle" x="405.04" y="-159.8" font-family="Times,serif" font-size="9.00">Check object</text>
</g>
<!-- Pickup Behavior&#45;&gt;Check object -->
<g id="edge5" class="edge">
<title>Pickup Behavior&#45;&gt;Check object</title>
<path fill="none" stroke="black" d="M480.58,-215.88C466.76,-206.2 449.37,-194.03 434.77,-183.81"/>
<polygon fill="black" stroke="black" points="436.74,-180.91 426.54,-178.05 432.72,-186.65 436.74,-180.91"/>
</g>
<!-- Get object -->
<g id="node7" class="node">
<title>Get object</title>
<ellipse fill="gray" stroke="black" cx="505.04" cy="-162" rx="37.56" ry="18"/>
<text text-anchor="middle" x="505.04" y="-159.8" font-family="Times,serif" font-size="9.00">Get object</text>
</g>
<!-- Pickup Behavior&#45;&gt;Get object -->
<g id="edge6" class="edge">
<title>Pickup Behavior&#45;&gt;Get object</title>
<path fill="none" stroke="black" d="M505.04,-215.7C505.04,-207.98 505.04,-198.71 505.04,-190.11"/>
<polygon fill="black" stroke="black" points="508.54,-190.1 505.04,-180.1 501.54,-190.1 508.54,-190.1"/>
</g>
<!-- Selector -->
<g id="node8" class="node">
<title>Selector</title>
<polygon fill="cyan" stroke="black" points="643.78,-154.54 643.78,-169.46 619.33,-180 584.76,-180 560.3,-169.46 560.3,-154.54 584.76,-144 619.33,-144 643.78,-154.54"/>
<text text-anchor="middle" x="602.04" y="-159.8" font-family="Times,serif" font-size="9.00">Ⓜ Selector</text>
</g>
<!-- Pickup Behavior&#45;&gt;Selector -->
<g id="edge7" class="edge">
<title>Pickup Behavior&#45;&gt;Selector</title>
<path fill="none" stroke="black" d="M529.02,-215.7C542.12,-206.24 558.47,-194.45 572.37,-184.42"/>
<polygon fill="black" stroke="black" points="574.59,-187.13 580.65,-178.44 570.5,-181.45 574.59,-187.13"/>
</g>
<!-- Move to drop&#45;off -->
<g id="node13" class="node">
<title>Move to drop&#45;off</title>
<ellipse fill="gray" stroke="black" cx="715.04" cy="-162" rx="53.23" ry="18"/>
<text text-anchor="middle" x="715.04" y="-159.8" font-family="Times,serif" font-size="9.00">Move to drop&#45;off</text>
</g>
<!-- Pickup Behavior&#45;&gt;Move to drop&#45;off -->
<g id="edge12" class="edge">
<title>Pickup Behavior&#45;&gt;Move to drop&#45;off</title>
<path fill="none" stroke="black" d="M556.15,-215.97C590.62,-204.47 635.74,-189.44 669.08,-178.32"/>
<polygon fill="black" stroke="black" points="670.21,-181.63 678.59,-175.15 668,-174.99 670.21,-181.63"/>
</g>
<!-- Let object -->
<g id="node14" class="node">
<title>Let object</title>
<ellipse fill="gray" stroke="black" cx="822.04" cy="-162" rx="36.25" ry="18"/>
<text text-anchor="middle" x="822.04" y="-159.8" font-family="Times,serif" font-size="9.00">Let object</text>
</g>
<!-- Pickup Behavior&#45;&gt;Let object -->
<g id="edge13" class="edge">
<title>Pickup Behavior&#45;&gt;Let object</title>
<path fill="none" stroke="black" d="M557.3,-225.51C612.51,-216.96 701.84,-201.37 777.04,-180 779.67,-179.26 782.35,-178.42 785.04,-177.54"/>
<polygon fill="black" stroke="black" points="786.4,-180.77 794.69,-174.18 784.09,-174.16 786.4,-180.77"/>
</g>
<!-- Objects done +1 -->
<g id="node15" class="node">
<title>Objects done +1</title>
<ellipse fill="gray" stroke="black" cx="931.04" cy="-162" rx="54.04" ry="18"/>
<text text-anchor="middle" x="931.04" y="-159.8" font-family="Times,serif" font-size="9.00">Objects done +1</text>
</g>
<!-- Pickup Behavior&#45;&gt;Objects done +1 -->
<g id="edge14" class="edge">
<title>Pickup Behavior&#45;&gt;Objects done +1</title>
<path fill="none" stroke="black" d="M557.22,-227.26C627.87,-219.06 757.69,-202.45 867.04,-180 871.72,-179.04 876.57,-177.94 881.41,-176.78"/>
<polygon fill="black" stroke="black" points="882.41,-180.14 891.27,-174.32 880.72,-173.34 882.41,-180.14"/>
</g>
<!-- Both objects done? -->
<g id="node3" class="node">
<title>Both objects done?</title>
<ellipse fill="gray" stroke="black" cx="60.04" cy="-90" rx="60.09" ry="18"/>
<text text-anchor="middle" x="60.04" y="-87.8" font-family="Times,serif" font-size="9.00">Both objects done?</text>
</g>
<!-- Inverter&#45;&gt;Both objects done? -->
<g id="edge2" class="edge">
<title>Inverter&#45;&gt;Both objects done?</title>
<path fill="none" stroke="black" d="M60.04,-143.7C60.04,-135.98 60.04,-126.71 60.04,-118.11"/>
<polygon fill="black" stroke="black" points="63.54,-118.1 60.04,-108.1 56.54,-118.1 63.54,-118.1"/>
</g>
<!-- Sequence -->
<g id="node9" class="node">
<title>Sequence</title>
<polygon fill="orange" stroke="black" points="572.04,-108 498.04,-108 498.04,-72 572.04,-72 572.04,-108"/>
<text text-anchor="middle" x="535.04" y="-87.8" font-family="Times,serif" font-size="9.00">Ⓜ Sequence</text>
</g>
<!-- Selector&#45;&gt;Sequence -->
<g id="edge8" class="edge">
<title>Selector&#45;&gt;Sequence</title>
<path fill="none" stroke="black" d="M585.48,-143.7C577.37,-135.22 567.46,-124.86 558.57,-115.58"/>
<polygon fill="black" stroke="black" points="560.86,-112.91 551.42,-108.1 555.8,-117.75 560.86,-112.91"/>
</g>
<!-- Set drop&#45;off point for coke -->
<g id="node12" class="node">
<title>Set drop&#45;off point for coke</title>
<ellipse fill="gray" stroke="black" cx="669.04" cy="-90" rx="79.19" ry="18"/>
<text text-anchor="middle" x="669.04" y="-87.8" font-family="Times,serif" font-size="9.00">Set drop&#45;off point for coke</text>
</g>
<!-- Selector&#45;&gt;Set drop&#45;off point for coke -->
<g id="edge11" class="edge">
<title>Selector&#45;&gt;Set drop&#45;off point for coke</title>
<path fill="none" stroke="black" d="M618.61,-143.7C626.72,-135.22 636.63,-124.86 645.52,-115.58"/>
<polygon fill="black" stroke="black" points="648.29,-117.75 652.67,-108.1 643.23,-112.91 648.29,-117.75"/>
</g>
<!-- Object is beer? -->
<g id="node10" class="node">
<title>Object is beer?</title>
<ellipse fill="gray" stroke="black" cx="461.04" cy="-18" rx="49.8" ry="18"/>
<text text-anchor="middle" x="461.04" y="-15.8" font-family="Times,serif" font-size="9.00">Object is beer?</text>
</g>
<!-- Sequence&#45;&gt;Object is beer? -->
<g id="edge9" class="edge">
<title>Sequence&#45;&gt;Object is beer?</title>
<path fill="none" stroke="black" d="M516.75,-71.7C507.34,-62.79 495.73,-51.81 485.56,-42.19"/>
<polygon fill="black" stroke="black" points="487.78,-39.47 478.11,-35.14 482.97,-44.56 487.78,-39.47"/>
</g>
<!-- Set drop&#45;off point for beer -->
<g id="node11" class="node">
<title>Set drop&#45;off point for beer</title>
<ellipse fill="gray" stroke="black" cx="608.04" cy="-18" rx="79.19" ry="18"/>
<text text-anchor="middle" x="608.04" y="-15.8" font-family="Times,serif" font-size="9.00">Set drop&#45;off point for beer</text>
</g>
<!-- Sequence&#45;&gt;Set drop&#45;off point for beer -->
<g id="edge10" class="edge">
<title>Sequence&#45;&gt;Set drop&#45;off point for beer</title>
<path fill="none" stroke="black" d="M553.09,-71.7C562.24,-62.92 573.49,-52.13 583.43,-42.61"/>
<polygon fill="black" stroke="black" points="585.91,-45.07 590.71,-35.62 581.07,-40.02 585.91,-45.07"/>
</g>
</g>
</svg>
